# xmcd
#
# Track frame offsets:
# 150
# 12738
# 29452
# 44685
# 56328
# 67234
# 79613
# 88525
# 94141
# 113238
# 130861
# 137254
# 146863
# 159794
#
# Disc length: 2382 seconds
#
# Revision: 0
# Processed by: cddbd v1.4PL0 Copyright (c) Steve Scherf et al.
# Submitted via: Audion 2.6.0 (http://www.panic.com/audion/)
#
DISCID=be094c0e
DTITLE=The Standard - World's Greatest
DYEAR=1900
DGENRE=
TTITLE0=Spanglish
TTITLE1=Baptiste
TTITLE2=Simplify
TTITLE3=Medical Situation
TTITLE4=Static
TTITLE5=Queen
TTITLE6=Subject
TTITLE7=The Greatest Gift
TTITLE8=Palm Sunday
TTITLE9=Expressway
TTITLE10=Blue Light
TTITLE11=Direct Drive
TTITLE12=OneTwentyOne
TTITLE13=Karate Workout
EXTD=
EXTT0=
EXTT1=
EXTT2=
EXTT3=
EXTT4=
EXTT5=
EXTT6=
EXTT7=
EXTT8=
EXTT9=
EXTT10=
EXTT11=
EXTT12=
EXTT13=
PLAYORDER=
